# xmcd
#
# Track frame offsets:
#	150
#	5011
#	22355
#	26104
#	51516
#	70911
#	74582
#	96922
#	113746
#	140035
#	157906
#	170330
#	199457
#
# Disc length: 2705 seconds
#
# Revision: 1
# Processed by: cddbd v1.5.2PL0 Copyright (c) Steve Scherf et al.
# Submitted via: audiograbber 1.82.01
#
DISCID=c70a8f0d
DTITLE=Prince - Lovesexy (indexed)
DYEAR=1988
DGENRE=Funk
TTITLE0=intro
TTITLE1=Eye No
TTITLE2=segue
TTITLE3=Alphabet St.
TTITLE4=Glam Slam
TTITLE5=segue
TTITLE6=Anna Stesia
TTITLE7=Dance On
TTITLE8=Lovesexy
TTITLE9=When 2 R In Love
TTITLE10=I Wish U Heaven
TTITLE11=Positivity
TTITLE12=outtro
EXTD=indexed version: separate tracks
EXTT0=
EXTT1=
EXTT2=
EXTT3=
EXTT4=
EXTT5=
EXTT6=
EXTT7=
EXTT8=
EXTT9=
EXTT10=
EXTT11=
EXTT12=
PLAYORDER=
